# xmcd
#
# Track frame offsets:
#	150
#	12676
#	24663
#	36597
#	48645
#	60859
#	72813
#	85943
#	108965
#	118563
#	129162
#	142720
#	155915
#	168888
#	179139
#
# Disc length: 2529 seconds
#
# Revision: 1
# Processed by: cddbd v1.5.2PL0 Copyright (c) Steve Scherf et al.
# Submitted via: audiograbber 1.83.01
#
DISCID=cb09df0f
DTITLE=B.B.King - Beale Street Blues Boys 06
DYEAR=1959
DGENRE=Blues
TTITLE0=B.B.King - Why Do Everything Happen to Me (Hawkins - Taub)
TTITLE1=B.B.King - Don't You Want a Man Like Me (King - Taub)
TTITLE2=B.B.King - You Know I Go for You (King - Taub)
TTITLE3=B.B.King - The Fool (Davis - Taub)
TTITLE4=B.B.King - Don't Look Now, But I've Got the Blues (Hazlewood)
TTITLE5=B.B.King - You've Been an Angel (King - Taub)
TTITLE6=B.B.King - Sweet Thing (King - Josea)
TTITLE7=B.B.King - Everyday I Have the Blues (Chatman)
TTITLE8=B.B.King - Time to Say Goodbye (King - Ling)
TTITLE9=B.B.King - I've Got Papers On You Baby (King - Taub)
TTITLE10=B.B.King - The Woman I Love (Clayton)
TTITLE11=B.B.King - Tomorrow is Another Day (King - Ling)
TTITLE12=B.B.King - I Love You So (King - Ling)
TTITLE13=B.B.King - Come By Here (King - Taub)
TTITLE14=B.B.King - Treat Me Right (King - Ling)
EXTD=
EXTT0=
EXTT1=
EXTT2=
EXTT3=
EXTT4=
EXTT5=
EXTT6=
EXTT7=
EXTT8=
EXTT9=
EXTT10=
EXTT11=
EXTT12=
EXTT13=
EXTT14=arr.by Ledeburgh\n
PLAYORDER=
